<svg width="123" height="103" viewBox="0 0 123 103" fill="none" xmlns="http://www.w3.org/2000/svg">
<g clip-path="url(#clip0_138_3513)">
<path fill-rule="evenodd" clip-rule="evenodd" d="M82.9154 -33.4812C80.6092 -41.4137 69.5279 -41.4137 67.2217 -33.4812L66.3404 -30.4507C65.5993 -27.9053 64.3056 -25.56 62.5542 -23.5868C60.8027 -21.6136 58.6379 -20.0624 56.2182 -19.0468C53.7985 -18.0312 51.1852 -17.577 48.5698 -17.7174C45.9544 -17.8578 43.4032 -18.5893 41.1029 -19.8582L38.3654 -21.3782C31.2029 -25.3207 23.3654 -17.3882 27.2654 -10.1207L28.7561 -7.34675C30.0083 -5.01582 30.7302 -2.43055 30.8687 0.219704C31.0073 2.86995 30.5591 5.51804 29.5568 7.97C28.5546 10.422 27.0238 12.6157 25.0766 14.3905C23.1293 16.1653 20.8149 17.4762 18.3029 18.2272L15.3123 19.1202C7.48418 21.4573 7.48418 32.6862 15.3123 35.0233L18.3029 35.9163C20.8162 36.6669 23.1319 37.9781 25.0801 39.7535C27.0283 41.529 28.5598 43.7238 29.5621 46.177C30.5645 48.6302 31.0123 51.2795 30.8728 53.9309C30.7334 56.5823 30.0101 59.1684 28.7561 61.4997L27.2561 64.2643C23.3654 71.5222 31.1936 79.4642 38.3654 75.5122L41.1029 74.0017C43.4038 72.7329 45.9557 72.0018 48.5716 71.862C51.1875 71.7222 53.8011 72.1772 56.2209 73.1938C58.6407 74.2103 60.8055 75.7626 62.5565 77.7369C64.3075 79.7112 65.6004 82.0574 66.3404 84.6037L67.2217 87.6247C69.5279 95.5572 80.6092 95.5572 82.9154 87.6247L83.7967 84.5943C84.5375 82.0474 85.8314 79.7009 87.5835 77.7267C89.3356 75.7525 91.5015 74.2006 93.9224 73.1849C96.3433 72.1692 98.9578 71.7154 101.574 71.8568C104.191 71.9981 106.743 72.731 109.044 74.0017L111.772 75.5218C118.934 79.4642 126.772 71.5317 122.872 64.2643L121.381 61.4997C120.127 59.1678 119.404 56.581 119.265 53.9292C119.126 51.2773 119.575 48.6275 120.578 46.1742C121.582 43.7209 123.114 41.5262 125.064 39.7512C127.013 37.9762 129.329 36.6659 131.844 35.9163L134.825 35.0233C142.653 32.6862 142.653 21.4573 134.825 19.1202L131.834 18.2272C129.322 17.4762 127.008 16.1653 125.061 14.3905C123.113 12.6157 121.583 10.422 120.58 7.97C119.578 5.51804 119.13 2.86995 119.268 0.219704C119.407 -2.43055 120.129 -5.01582 121.381 -7.34675L122.881 -10.1207C126.772 -17.3787 118.944 -25.3207 111.772 -21.3687L109.044 -19.8582C106.743 -18.5857 104.19 -17.8514 101.572 -17.7091C98.9544 -17.5668 96.3386 -18.0202 93.9165 -19.0361C91.4943 -20.0519 89.3274 -21.6044 87.5747 -23.5796C85.8219 -25.5548 84.5278 -27.9026 83.7873 -30.4507L82.9061 -33.4812H82.9154ZM58.2311 -36.1697C63.1717 -53.1747 86.9654 -53.1747 91.9061 -36.1697L92.7873 -33.1392C93.1324 -31.9522 93.7352 -30.8584 94.5515 -29.9381C95.3679 -29.0178 96.3772 -28.2943 97.5054 -27.8207C98.6335 -27.347 99.852 -27.1351 101.071 -27.2006C102.291 -27.2661 103.481 -27.6073 104.553 -28.1992L107.29 -29.7192C122.665 -38.1932 139.484 -21.1597 131.103 -5.57975L129.612 -2.80575C129.028 -1.71902 128.691 -0.513611 128.627 0.722118C128.562 1.95785 128.771 3.19258 129.239 4.33579C129.706 5.47901 130.42 6.50174 131.328 7.32901C132.237 8.15628 133.316 8.76712 134.487 9.11675L137.478 10.0098C154.259 15.0163 154.259 39.1272 137.478 44.1337L134.487 45.0268C133.316 45.3764 132.237 45.9872 131.328 46.8145C130.42 47.6418 129.706 48.6645 129.239 49.8077C128.771 50.9509 128.562 52.1857 128.627 53.4214C128.691 54.6571 129.028 55.8625 129.612 56.9493L131.112 59.7233C139.484 75.3033 122.656 92.3463 107.29 83.8533L104.553 82.3427C103.481 81.7508 102.291 81.4096 101.071 81.3441C99.852 81.2786 98.6335 81.4905 97.5054 81.9642C96.3772 82.4378 95.3679 83.1613 94.5515 84.0816C93.7352 85.0019 93.1324 86.0957 92.7873 87.2827L91.9061 90.3132C86.9654 107.318 63.1717 107.318 58.2311 90.3132L57.3498 87.2827C57.0048 86.0957 56.402 85.0019 55.5856 84.0816C54.7692 83.1613 53.7599 82.4378 52.6318 81.9642C51.5036 81.4905 50.2851 81.2786 49.0656 81.3441C47.8462 81.4096 46.6566 81.7508 45.5842 82.3427L42.8467 83.8627C27.4717 92.3462 10.6623 75.2938 19.0342 59.7233L20.5248 56.9493C21.1089 55.8625 21.4456 54.6571 21.5103 53.4214C21.5749 52.1857 21.3659 50.9509 20.8984 49.8077C20.431 48.6645 19.717 47.6418 18.8088 46.8145C17.9006 45.9872 16.8212 45.3764 15.6498 45.0268L12.6592 44.1337C-4.12207 39.1272 -4.12207 15.0163 12.6592 10.0098L15.6498 9.11675C16.8212 8.76712 17.9006 8.15628 18.8088 7.32901C19.717 6.50174 20.431 5.47901 20.8984 4.33579C21.3659 3.19258 21.5749 1.95785 21.5103 0.722118C21.4456 -0.513611 21.1089 -1.71902 20.5248 -2.80575L19.0248 -5.57975C10.6623 -21.1597 27.4811 -38.1932 42.8467 -29.7097L45.5842 -28.1992C46.6566 -27.6073 47.8462 -27.2661 49.0656 -27.2006C50.2851 -27.1351 51.5036 -27.347 52.6318 -27.8207C53.7599 -28.2943 54.7692 -29.0178 55.5856 -29.9381C56.402 -30.8584 57.0048 -31.9522 57.3498 -33.1392L58.2311 -36.1697Z" fill="white"/>
<path fill-rule="evenodd" clip-rule="evenodd" d="M74.9991 5.66214C69.4147 5.66214 64.0589 7.91014 60.1101 11.9116C56.1613 15.9131 53.9429 21.3402 53.9429 26.9991C53.9429 32.6581 56.1613 38.0852 60.1101 42.0867C64.0589 46.0881 69.4147 48.3361 74.9991 48.3361C80.5836 48.3361 85.9393 46.0881 89.8881 42.0867C93.837 38.0852 96.0554 32.6581 96.0554 26.9991C96.0554 21.3402 93.837 15.9131 89.8881 11.9116C85.9393 7.91014 80.5836 5.66214 74.9991 5.66214ZM44.5679 26.9991C44.5679 22.9496 45.355 18.9397 46.8843 15.1983C48.4136 11.457 50.6552 8.05757 53.481 5.19409C56.3068 2.33061 59.6615 0.0591753 63.3536 -1.49053C67.0457 -3.04023 71.0028 -3.83786 74.9991 -3.83786C78.9954 -3.83786 82.9526 -3.04023 86.6447 -1.49053C90.3367 0.0591753 93.6915 2.33061 96.5173 5.19409C99.3431 8.05757 101.585 11.457 103.114 15.1983C104.643 18.9397 105.43 22.9496 105.43 26.9991C105.43 35.1776 102.224 43.0211 96.5173 48.8042C90.8103 54.5873 83.07 57.8361 74.9991 57.8361C66.9283 57.8361 59.1879 54.5873 53.481 48.8042C47.774 43.0211 44.5679 35.1776 44.5679 26.9991Z" fill="white"/>
</g>
<defs>
<clipPath id="clip0_138_3513">
<rect width="150" height="152" fill="white" transform="translate(0 -49)"/>
</clipPath>
</defs>
</svg>
