<svg width="140" height="123" viewBox="0 0 140 123" fill="none" xmlns="http://www.w3.org/2000/svg">
<g clip-path="url(#clip0_140_5577)">
<path d="M39.8172 15.8659C45.8351 13.3861 48.5091 6.59504 46.1228 0.804245C43.7366 -4.98655 36.9706 -8.12577 30.9527 -5.64595C24.9348 -3.16613 22.0587 3.70823 24.445 9.49902C26.8312 15.2898 33.7993 18.3458 39.8172 15.8659ZM126.815 -19.9839C132.833 -22.4637 135.507 -29.2548 133.121 -35.0456C130.735 -40.8364 124.173 -44.0598 117.951 -41.4958C111.933 -39.016 109.055 -32.1407 111.441 -26.3499C113.827 -20.5591 121.002 -17.5883 126.815 -19.9839ZM163.011 8.28576L151.34 -8.10867C148.426 -12.1999 143.674 -14.7086 138.641 -14.7515C133.694 -14.8299 129.36 -12.713 126.2 -8.76469C122.31 -3.62136 120.418 2.74687 120.807 9.17021L121.411 17.8867L118.937 21.6183L109.573 0.0609316C108.757 -1.91834 106.435 -2.87987 104.448 -2.06106L68.318 12.8272C66.3309 13.646 65.3603 15.9645 66.1759 17.9437L75.0405 39.4556L70.4243 38.6455L64.7115 32.0345C60.4793 27.1632 54.6602 24.0042 48.249 23.1056C43.3996 22.4578 38.655 24.0822 35.2018 27.622C31.66 31.1984 30.0542 36.3268 30.8693 41.2832L34.1668 61.1279C34.9807 66.0847 38.1823 70.3885 42.7199 72.6201L65.0647 83.4913L75.9971 103.497C77.9946 107.223 82.2656 108.691 85.9444 107.175C86.2283 107.058 86.4437 106.937 86.716 106.791C90.5425 104.718 91.943 99.9748 89.8455 96.174L78.9291 76.1295C77.3767 73.3293 74.998 71.1024 72.1195 69.6741L57.7032 62.6487L55.1442 45.0797L58.6054 49.0462C60.6789 51.4995 63.4914 53.2512 67.2106 54.1346L81.8216 56.7137C83.1394 56.9314 85.005 56.6257 86.205 56.2305L122.335 41.3422C123.464 40.7777 125.003 39.6805 125.786 38.5969L134.338 26.4728C136.354 23.2278 137.129 20.0304 136.861 16.7992L136.522 11.5458L147.086 25.8162L141.805 40.9586C140.766 43.9995 140.649 47.2564 141.52 50.3374L147.894 72.2535C149.083 76.4263 153.447 78.7982 157.595 77.5835C158.082 77.4229 158.318 77.352 158.409 77.3145C162.069 75.8061 163.887 71.8498 162.962 67.8966L156.626 45.9965L165.026 22.459C166.669 17.6802 165.92 12.3794 163.011 8.28576ZM45.7698 83.0063L46.0313 112.006C46.082 116.32 49.6343 119.783 53.9721 119.75C58.3817 119.653 61.7843 116.067 61.7569 111.81L61.5853 93.5885L59.43 89.6474L45.7698 83.0063ZM190.333 52.5427L170.292 31.6936L165.275 46.0338L166.522 50.3492L179.238 63.4019C181.34 65.8539 184.774 66.4501 187.476 65.3365C188.384 64.9624 189.223 64.4184 189.962 63.7168C193.255 60.6002 193.338 55.6442 190.333 52.5427Z" fill="white"/>
</g>
<defs>
<clipPath id="clip0_140_5577">
<rect width="157.194" height="125.264" fill="white" transform="translate(0.664062 6.83533) rotate(-22.3954)"/>
</clipPath>
</defs>
</svg>
