<svg width="141" height="140" viewBox="0 0 141 140" fill="none" xmlns="http://www.w3.org/2000/svg">
<g clip-path="url(#clip0_322_5116)">
<path d="M59.7601 -17.1792C26.752 -7.88836 8.81682 30.9655 19.6955 69.6148C30.5742 108.264 66.143 132.058 99.1511 122.767C132.159 113.476 150.094 74.6226 139.216 35.9733C128.337 -2.67603 92.7682 -26.4701 59.7601 -17.1792ZM69.6078 17.8074C78.8917 15.1943 88.8958 21.8888 91.9547 32.7566C95.0137 43.6243 89.9774 54.5523 80.6866 57.1674C71.4051 59.7799 61.3986 53.086 58.3397 42.2182C55.2807 31.3505 60.317 20.4225 69.6078 17.8074ZM94.2272 105.274C81.8714 108.752 69.0169 106.019 58.219 98.8044C58.784 86.3119 65.8212 75.511 76.9095 72.39L91.8495 68.1848C102.947 65.0611 114.583 70.6 121.574 80.9717C116.127 92.7676 106.576 101.798 94.2272 105.274Z" fill="white"/>
</g>
<defs>
<clipPath id="clip0_322_5116">
<rect width="124.165" height="145.385" fill="white" transform="translate(0 -0.358429) rotate(-15.7204)"/>
</clipPath>
</defs>
</svg>
