<svg width="14" height="18" viewBox="0 0 14 18" fill="none" xmlns="http://www.w3.org/2000/svg">
<g clip-path="url(#clip0_320_5051)">
<path d="M13.5887 12.7055C14.1356 13.1449 14.1356 13.8568 13.5887 14.2963C13.3175 14.516 12.9587 14.625 12.6 14.625C12.2413 14.625 11.8834 14.5151 11.6104 14.2954L7 10.5926L2.39006 14.2945C2.11663 14.516 1.75831 14.625 1.4 14.625C1.04169 14.625 0.683812 14.516 0.410156 14.2945C-0.136719 13.8551 -0.136719 13.1432 0.410156 12.7037L5.02141 8.99824L0.410156 5.29453C-0.136719 4.85508 -0.136719 4.14316 0.410156 3.70371C0.957031 3.26426 1.84297 3.26426 2.38984 3.70371L7 7.41094L11.6112 3.70547C12.1581 3.26602 13.0441 3.26602 13.5909 3.70547C14.1378 4.14492 14.1378 4.85684 13.5909 5.29629L8.97969 9.00176L13.5887 12.7055Z" fill="white"/>
</g>
<defs>
<clipPath id="clip0_320_5051">
<rect width="14" height="18" fill="white"/>
</clipPath>
</defs>
</svg>
