<svg width="139" height="139" viewBox="0 0 139 139" fill="none" xmlns="http://www.w3.org/2000/svg">
<g clip-path="url(#clip0_130_3128)">
<path fill-rule="evenodd" clip-rule="evenodd" d="M76.835 14.1915C74.6979 6.93744 64.4292 6.93744 62.2921 14.1915L61.4755 16.9628C60.7887 19.2906 59.5899 21.4353 57.9669 23.2397C56.3438 25.0442 54.3377 26.4627 52.0955 27.3914C49.8532 28.3202 47.4316 28.7355 45.008 28.6071C42.5845 28.4787 40.2203 27.8098 38.0887 26.6494L35.552 25.2594C28.9147 21.6541 21.652 28.9081 25.266 35.5541L26.6473 38.0908C27.8077 40.2224 28.4766 42.5866 28.605 45.0101C28.7334 47.4337 28.3181 49.8553 27.3893 52.0976C26.4606 54.3398 25.0421 56.3459 23.2376 57.969C21.4332 59.592 19.2885 60.7908 16.9607 61.4776L14.1894 62.2942C6.93534 64.4313 6.93534 74.7 14.1894 76.8371L16.9607 77.6537C19.2897 78.3402 21.4355 79.5392 23.2409 81.1628C25.0463 82.7864 26.4654 84.7935 27.3942 87.0369C28.3231 89.2802 28.7381 91.703 28.6088 94.1277C28.4796 96.5523 27.8093 98.9172 26.6473 101.049L25.2573 103.577C21.652 110.214 28.906 117.477 35.552 113.863L38.0887 112.482C40.2209 111.322 42.5856 110.653 45.0097 110.525C47.4337 110.397 49.8557 110.813 52.098 111.743C54.3404 112.673 56.3464 114.092 57.969 115.898C59.5916 117.703 60.7897 119.849 61.4755 122.177L62.2921 124.94C64.4292 132.194 74.6979 132.194 76.835 124.94L77.6516 122.168C78.3381 119.839 79.5371 117.694 81.1607 115.888C82.7843 114.083 84.7914 112.664 87.0348 111.735C89.2781 110.806 91.7009 110.391 94.1255 110.52C96.5502 110.65 98.9151 111.32 101.047 112.482L103.575 113.872C110.212 117.477 117.475 110.223 113.861 103.577L112.48 101.049C111.318 98.9167 110.648 96.5511 110.519 94.126C110.391 91.7009 110.806 89.2778 111.736 87.0343C112.666 84.7908 114.086 82.7839 115.892 81.1607C117.699 79.5375 119.845 78.3392 122.175 77.6537L124.938 76.8371C132.192 74.7 132.192 64.4313 124.938 62.2942L122.166 61.4776C119.839 60.7908 117.694 59.592 115.889 57.969C114.085 56.3459 112.666 54.3398 111.738 52.0976C110.809 49.8553 110.394 47.4337 110.522 45.0101C110.65 42.5866 111.319 40.2224 112.48 38.0908L113.87 35.5541C117.475 28.9168 110.221 21.6541 103.575 25.2681L101.047 26.6494C98.9148 27.8131 96.549 28.4846 94.1234 28.6147C91.6977 28.7448 89.2737 28.3302 87.0293 27.4012C84.7848 26.4723 82.7767 25.0526 81.1525 23.2463C79.5283 21.44 78.3291 19.293 77.6429 16.9628L76.8263 14.1915H76.835ZM53.9608 11.7329C58.5391 -3.81768 80.588 -3.81768 85.1663 11.7329L85.9829 14.5043C86.3027 15.5898 86.8612 16.59 87.6178 17.4316C88.3743 18.2732 89.3095 18.9348 90.355 19.368C91.4004 19.8011 92.5295 19.9949 93.6596 19.935C94.7896 19.8751 95.8919 19.563 96.8857 19.0218L99.4225 17.6318C113.67 9.88251 129.255 25.4592 121.489 39.7067L120.107 42.2434C119.566 43.2372 119.254 44.3395 119.194 45.4696C119.134 46.5996 119.328 47.7288 119.761 48.7742C120.194 49.8196 120.856 50.7549 121.698 51.5114C122.539 52.2679 123.539 52.8265 124.625 53.1463L127.396 53.9629C142.947 58.5412 142.947 80.5901 127.396 85.1684L124.625 85.985C123.539 86.3048 122.539 86.8633 121.698 87.6199C120.856 88.3764 120.194 89.3116 119.761 90.3571C119.328 91.4025 119.134 92.5316 119.194 93.6617C119.254 94.7917 119.566 95.894 120.107 96.8878L121.497 99.4246C129.255 113.672 113.661 129.257 99.4225 121.491L96.8857 120.11C95.8919 119.568 94.7896 119.256 93.6596 119.196C92.5295 119.136 91.4004 119.33 90.355 119.763C89.3095 120.196 88.3743 120.858 87.6178 121.7C86.8612 122.541 86.3027 123.541 85.9829 124.627L85.1663 127.398C80.588 142.949 58.5391 142.949 53.9608 127.398L53.1442 124.627C52.8244 123.541 52.2658 122.541 51.5093 121.7C50.7528 120.858 49.8175 120.196 48.7721 119.763C47.7267 119.33 46.5975 119.136 45.4675 119.196C44.3374 119.256 43.2351 119.568 42.2413 120.11L39.7046 121.5C25.4571 129.257 9.8804 113.663 17.6383 99.4246L19.0197 96.8878C19.5609 95.894 19.873 94.7917 19.9329 93.6617C19.9928 92.5316 19.799 91.4025 19.3659 90.3571C18.9327 89.3116 18.2711 88.3764 17.4295 87.6199C16.5879 86.8633 15.5877 86.3048 14.5022 85.985L11.7308 85.1684C-3.81979 80.5901 -3.81979 58.5412 11.7308 53.9629L14.5022 53.1463C15.5877 52.8265 16.5879 52.2679 17.4295 51.5114C18.2711 50.7549 18.9327 49.8196 19.3659 48.7742C19.799 47.7288 19.9928 46.5996 19.9329 45.4696C19.873 44.3395 19.5609 43.2372 19.0197 42.2434L17.6297 39.7067C9.8804 25.4592 25.4658 9.8825 39.7046 17.6404L42.2413 19.0218C43.2351 19.563 44.3374 19.8751 45.4675 19.935C46.5975 19.9949 47.7267 19.8011 48.7721 19.368C49.8175 18.9348 50.7528 18.2732 51.5093 17.4316C52.2658 16.59 52.8244 15.5898 53.1442 14.5043L53.9608 11.7329Z" fill="white"/>
<path fill-rule="evenodd" clip-rule="evenodd" d="M69.4992 49.9871C64.3242 49.9871 59.3613 52.0428 55.702 55.7021C52.0428 59.3613 49.9871 64.3243 49.9871 69.4992C49.9871 74.6742 52.0428 79.6371 55.702 83.2964C59.3613 86.9556 64.3242 89.0113 69.4992 89.0113C74.6741 89.0113 79.6371 86.9556 83.2963 83.2964C86.9556 79.6371 89.0113 74.6742 89.0113 69.4992C89.0113 64.3243 86.9556 59.3613 83.2963 55.7021C79.6371 52.0428 74.6741 49.9871 69.4992 49.9871ZM41.2996 69.4992C41.2996 65.796 42.029 62.129 43.4461 58.7077C44.8633 55.2864 46.9405 52.1777 49.559 49.5591C52.1776 46.9405 55.2863 44.8633 58.7077 43.4462C62.129 42.029 65.796 41.2996 69.4992 41.2996C73.2024 41.2996 76.8694 42.029 80.2907 43.4462C83.7121 44.8633 86.8208 46.9405 89.4393 49.5591C92.0579 52.1777 94.1351 55.2864 95.5522 58.7077C96.9694 62.129 97.6988 65.796 97.6988 69.4992C97.6988 76.9782 94.7278 84.1509 89.4393 89.4394C84.1509 94.7278 76.9782 97.6988 69.4992 97.6988C62.0202 97.6988 54.8475 94.7278 49.559 89.4394C44.2706 84.1509 41.2996 76.9782 41.2996 69.4992Z" fill="white"/>
</g>
<defs>
<clipPath id="clip0_130_3128">
<rect width="139" height="139" fill="white"/>
</clipPath>
</defs>
</svg>
