<svg width="19" height="24" viewBox="0 0 19 24" fill="none" xmlns="http://www.w3.org/2000/svg">
<path d="M18.3216 12C18.3216 12.8292 17.7138 13.5005 16.9644 13.5005H10.8573V20.2505C10.8573 21.0797 10.2495 21.75 9.50014 21.75C8.75074 21.75 8.143 21.0797 8.143 20.2505V13.5005H2.03585C1.28646 13.5005 0.678711 12.8292 0.678711 12C0.678711 11.1708 1.28646 10.5005 2.03585 10.5005H8.143V3.75047C8.143 2.92125 8.75074 2.25 9.50014 2.25C10.2495 2.25 10.8573 2.92125 10.8573 3.75047V10.5005H16.9644C17.7151 10.5 18.3216 11.1703 18.3216 12Z" fill="white"/>
</svg>
