<svg width="20" height="20" viewBox="0 0 20 20" fill="none" xmlns="http://www.w3.org/2000/svg">
<path d="M11.25 10C11.25 10.6914 10.6914 11.25 10 11.25C9.30859 11.25 8.75 10.6914 8.75 10V1.25C8.75 0.559766 9.30859 0 10 0C10.6914 0 11.25 0.559766 11.25 1.25V10ZM3.125 10C3.125 13.7969 6.20313 16.875 10 16.875C13.7969 16.875 16.875 13.7969 16.875 10C16.875 7.875 15.9102 5.97266 14.3945 4.71094C13.8633 4.26953 13.7891 3.48164 14.2305 2.95078C14.6719 2.41992 15.4609 2.34766 15.9922 2.78906C18.0547 4.50781 19.375 7.10156 19.375 9.96484C19.375 15.1758 15.1758 19.375 10 19.375C4.82422 19.375 0.625 15.1758 0.625 9.96484C0.625 7.10156 1.94336 4.50781 4.00781 2.78906C4.53906 2.34766 5.32812 2.41992 5.76953 2.95078C6.17578 3.48164 6.13672 4.26953 5.60547 4.71094C4.08984 5.97266 3.125 7.875 3.125 10Z" fill="black" fill-opacity="0.54"/>
</svg>
