<svg width="48" height="43" viewBox="0 0 48 43" fill="none" xmlns="http://www.w3.org/2000/svg">
<path fill-rule="evenodd" clip-rule="evenodd" d="M24.0224 10.75C17.6551 10.75 12.4753 15.5723 12.4753 21.5C12.4753 27.4277 17.6551 32.25 24.0224 32.25C30.3896 32.25 35.5694 27.4277 35.5694 21.5C35.5694 15.5723 30.3896 10.75 24.0224 10.75ZM20.1734 19.7083C20.1734 17.7294 21.9478 16.125 24.0224 16.125C26.097 16.125 27.8714 17.7294 27.8714 19.7083V20.6042C27.8714 22.5831 26.097 24.1875 24.0224 24.1875C21.9478 24.1875 20.1734 22.5831 20.1734 20.6042V19.7083ZM17.863 28.3746C19.5335 29.6736 21.6812 30.4583 24.0224 30.4583C26.3635 30.4583 28.5113 29.6736 30.1818 28.3746C29.3744 26.9565 27.7915 25.9792 25.9469 25.9792H22.0979C20.2532 25.9792 18.6703 26.9565 17.863 28.3746Z" fill="black" fill-opacity="0.54"/>
</svg>
