<svg width="27" height="23" viewBox="0 0 27 23" fill="none" xmlns="http://www.w3.org/2000/svg">
<path d="M5.40023 4.27207C6.5182 4.27207 7.38726 3.30625 7.38726 2.15625C7.38726 1.00625 6.5182 0 5.40023 0C4.28226 0 3.37565 0.96582 3.37565 2.11582C3.37565 3.26582 4.28226 4.27207 5.40023 4.27207ZM21.5623 4.27207C22.6802 4.27207 23.5493 3.30625 23.5493 2.15625C23.5493 1.00625 22.7182 0 21.5623 0C20.4443 0 19.5373 0.96582 19.5373 2.11582C19.5373 3.26582 20.4823 4.27207 21.5623 4.27207ZM25.4604 11.6033L24.6799 8.00373C24.4848 7.10529 23.8944 6.34701 23.0979 5.98764C22.3174 5.62826 21.4905 5.68441 20.7303 6.13363C19.776 6.73469 19.0589 7.68344 18.7003 8.80109L18.2257 10.323L17.5886 10.7835L17.5123 6.46875C17.5123 6.07568 17.2064 5.75 16.8373 5.75H10.1252C9.75609 5.75 9.45023 6.07568 9.45023 6.46875V10.7408L8.77017 10.2804L8.29556 8.75842C7.94224 7.63537 7.22484 6.69201 6.2655 6.09096C5.53776 5.64174 4.67798 5.58559 3.89793 5.94496C3.10143 6.30434 2.51081 7.06262 2.3159 7.96105L1.54092 11.5606C1.3458 12.4591 1.57258 13.4137 2.14715 14.11L4.98426 17.5186L5.4112 21.6797C5.48461 22.452 6.06679 23 6.75023 23C6.80297 23 6.84515 22.9944 6.89789 22.9888C7.64123 22.9045 8.17406 22.1972 8.08969 21.4053L7.66781 17.2388C7.60453 16.6548 7.3725 16.1103 7.00884 15.6665L5.17917 13.4653L5.92251 10.3037L6.21259 11.2192C6.38134 11.7808 6.71336 12.2749 7.24619 12.685L9.39775 14.145C9.59278 14.2742 9.90906 14.3528 10.1255 14.3696H16.8375C17.0537 14.3528 17.3699 14.2742 17.5653 14.145L19.7168 12.685C20.2492 12.2751 20.5817 11.7866 20.7504 11.2192L21.0404 10.3037L21.7842 13.4653L19.9545 15.6665C19.5907 16.1101 19.3589 16.6548 19.2956 17.2388L18.8737 21.4053C18.7893 22.1968 19.3272 22.9048 20.0655 22.9888C20.1532 22.9955 20.1954 23 20.2123 23C20.8923 23 21.4399 22.4555 21.5517 21.7197L21.9787 17.5586L24.8529 14.1504C25.4266 13.4541 25.6545 12.5018 25.4604 11.6033ZM1.95182 16.0865L0.0955739 21.0279C-0.178645 21.7638 0.158855 22.6002 0.849887 22.898C1.55653 23.19 2.33151 22.8194 2.60573 22.0948L3.77095 18.9894L3.68657 18.1695L1.95182 16.0865ZM26.9032 21.0279L25.0849 16.0865L23.3498 18.17L23.2654 18.9898L24.4306 22.0953C24.604 22.6586 25.1102 23 25.6123 23C25.7809 23 25.9497 22.9663 26.113 22.8989C26.8399 22.6002 27.1774 21.7646 26.9032 21.0279Z" fill="black" fill-opacity="0.54"/>
</svg>
