<svg width="362" height="362" viewBox="0 0 362 362" fill="none" xmlns="http://www.w3.org/2000/svg">
<path d="M362 362C362 561.927 199.927 724 0 724C-199.927 724 -362 561.927 -362 362C-362 162.073 -199.927 0 0 0C199.927 0 362 162.073 362 362Z" fill="#955D6C"/>
<path d="M286 362C286 519.953 157.953 648 0 648C-157.953 648 -286 519.953 -286 362C-286 204.047 -157.953 76 0 76C157.953 76 286 204.047 286 362Z" fill="url(#paint0_linear_103_2)"/>
<path d="M219 362C219 482.95 120.95 581 0 581C-120.95 581 -219 482.95 -219 362C-219 241.05 -120.95 143 0 143C120.95 143 219 241.05 219 362Z" fill="#955D6C"/>
<defs>
<linearGradient id="paint0_linear_103_2" x1="0" y1="76" x2="0" y2="648" gradientUnits="userSpaceOnUse">
<stop stop-color="#7B3347"/>
<stop offset="1" stop-color="#884C5C"/>
<stop offset="1" stop-color="#884C5C"/>
</linearGradient>
</defs>
</svg>
