<svg width="735" height="960" viewBox="0 0 735 960" fill="none" xmlns="http://www.w3.org/2000/svg">
<g clip-path="url(#clip0_102_63)">
<path d="M542.472 898.653C535.685 898.653 528.899 898.15 522.113 896.893C287.61 854.386 17.6687 774.404 -238.198 671.785C-296.258 648.394 -324.408 582.748 -301.033 524.647C-277.659 466.547 -212.058 438.377 -153.998 461.768C88.0446 558.854 342.403 634.309 562.328 674.3C623.906 685.367 664.624 744.222 653.565 805.844C643.763 860.423 596.259 898.653 542.472 898.653Z" fill="#DAC8CD"/>
<path d="M533.926 455.229C531.161 455.229 528.648 455.229 525.883 454.977C144.848 428.316 -157.014 385.81 -396.795 324.943C-457.368 309.6 -494.064 247.978 -478.481 187.363C-463.149 126.747 -401.57 90.2772 -340.997 105.62C-114.537 163.217 174.255 203.711 541.718 229.366C604.051 233.642 651.052 287.718 646.779 350.094C642.506 409.704 592.74 455.229 533.926 455.229Z" fill="#C4A6AF"/>
<path d="M-289.472 333.746C-325.916 333.746 -359.345 331.734 -387.747 326.955C-449.325 316.643 -490.797 258.039 -480.492 196.417C-470.187 134.796 -411.624 93.2954 -350.045 103.608C-291.231 113.668 -137.912 106.374 115.692 56.5739C310.231 18.3432 498.235 -33.2178 573.135 -69.1848C629.436 -96.0971 697.047 -72.203 723.941 -15.8631C750.835 40.4768 726.957 108.135 670.656 135.047C557.804 189.123 324.558 245.966 159.174 278.664C44.5624 301.3 -145.453 333.746 -289.472 333.746Z" fill="url(#paint0_linear_102_63)"/>
<path d="M5.85561 1039C-54.2152 1039 -103.981 991.966 -106.997 931.351C-110.013 868.974 -62.0069 815.904 0.577408 812.886C187.828 803.831 351.954 761.325 488.182 686.373C542.974 656.191 611.591 676.312 641.752 731.143C671.913 785.974 651.806 854.638 597.013 884.82C430.373 976.372 233.321 1028.18 11.3851 1039C9.3744 1039 7.61501 1039 5.85561 1039Z" fill="url(#paint1_linear_102_63)"/>
<path d="M-163.906 705.061C-221.715 705.061 -270.978 661.045 -276.507 602.19C-282.288 540.065 -236.544 484.732 -174.211 479.198C134.689 450.777 287.003 391.167 511.451 267.924C566.244 237.993 634.86 257.863 665.022 312.694C694.931 367.525 675.075 436.189 620.283 466.371C503.911 530.256 401.615 581.063 280.97 620.803C155.55 662.051 17.5634 688.712 -153.349 704.558C-156.868 704.809 -160.387 705.061 -163.906 705.061Z" fill="url(#paint2_linear_102_63)"/>
</g>
<defs>
<linearGradient id="paint0_linear_102_63" x1="-481.53" y1="124.137" x2="733.949" y2="134.912" gradientUnits="userSpaceOnUse">
<stop stop-color="#6E2639"/>
<stop offset="1" stop-color="#C4A6AF"/>
</linearGradient>
<linearGradient id="paint1_linear_102_63" x1="-106.798" y1="853.354" x2="655.153" y2="858.135" gradientUnits="userSpaceOnUse">
<stop stop-color="#6E2639"/>
<stop offset="1" stop-color="#C4A6AF"/>
</linearGradient>
<linearGradient id="paint2_linear_102_63" x1="-276.582" y1="476.683" x2="678.151" y2="482.784" gradientUnits="userSpaceOnUse">
<stop stop-color="#6E2639"/>
<stop offset="1" stop-color="#C4A6AF"/>
</linearGradient>
<clipPath id="clip0_102_63">
<rect width="1217" height="1119" fill="white" transform="translate(-482 -80)"/>
</clipPath>
</defs>
</svg>
