<svg width="759" height="768" viewBox="0 0 759 768" fill="none" xmlns="http://www.w3.org/2000/svg">
<path fill-rule="evenodd" clip-rule="evenodd" d="M1329.1 202.017C1440.38 394.774 1374.34 641.251 1181.58 752.539C1029.61 840.281 844.244 817.793 718.067 709.881C667.691 666.798 595.402 646.855 537.996 679.998C481.999 712.329 464.319 783.897 460.78 848.461C456.667 923.511 415.929 995.06 345.981 1035.45C235.872 1099.02 95.0766 1061.29 31.5053 951.182C-32.0659 841.073 5.66008 700.278 115.769 636.706C166.663 607.323 224.113 599.581 277.463 610.625C345.724 624.756 421.225 637.996 481.594 603.142C549.815 563.755 576.637 480.787 577.006 402.014C577.654 263.396 649.867 128.814 778.574 54.505C971.331 -56.7832 1217.81 9.26016 1329.1 202.017Z" fill="url(#paint0_linear_130_2820)"/>
<defs>
<linearGradient id="paint0_linear_130_2820" x1="478.795" y1="227.582" x2="881.806" y2="925.616" gradientUnits="userSpaceOnUse">
<stop stop-color="#7F3F50"/>
<stop offset="1" stop-color="#B6919C"/>
</linearGradient>
</defs>
</svg>
