<svg width="343" height="372" viewBox="0 0 343 372" fill="none" xmlns="http://www.w3.org/2000/svg">
<g clip-path="url(#clip0_102_57)">
<path d="M359.449 344.584C357.068 344.584 354.687 344.407 352.306 343.964C270.028 328.998 175.315 300.836 85.541 264.704C65.1699 256.467 55.293 233.354 63.4944 212.896C71.6957 192.439 94.7125 182.521 115.084 190.757C200.007 224.94 289.252 251.508 366.416 265.589C388.021 269.486 402.308 290.209 398.427 311.906C394.988 331.123 378.321 344.584 359.449 344.584Z" fill="#9E6E7B"/>
<path d="M356.451 188.454C355.481 188.454 354.599 188.454 353.629 188.366C219.938 178.978 114.025 164.012 29.8952 142.58C8.64222 137.178 -4.23303 115.481 1.23454 94.1385C6.61393 72.7957 28.2197 59.9546 49.4727 65.3567C128.929 85.6368 230.255 99.8948 359.184 108.928C381.055 110.433 397.546 129.474 396.046 151.436C394.547 172.425 377.086 188.454 356.451 188.454Z" fill="#6F283B"/>
<path d="M67.5511 145.68C54.764 145.68 43.0352 144.971 33.0701 143.289C11.4644 139.658 -3.08643 119.024 0.529226 97.3266C4.14488 75.6296 24.6924 61.0173 46.2981 64.6482C66.9338 68.1906 120.728 65.6224 209.708 48.0877C277.965 34.6267 343.928 16.472 370.208 3.80804C389.962 -5.6678 413.684 2.74533 423.12 22.5826C432.556 42.4199 424.178 66.2423 404.424 75.7181C364.828 94.7584 282.991 114.773 224.964 126.285C184.751 134.256 118.082 145.68 67.5511 145.68Z" fill="url(#paint0_linear_102_57)"/>
<path d="M171.17 394C150.094 394 132.633 377.439 131.575 356.097C130.516 334.134 147.36 315.448 169.319 314.385C235.018 311.197 292.604 296.231 340.401 269.84C359.625 259.213 383.7 266.298 394.283 285.604C404.865 304.909 397.81 329.086 378.586 339.713C320.118 371.949 250.979 390.192 173.111 394C172.405 394 171.788 394 171.17 394Z" fill="url(#paint1_linear_102_57)"/>
<path d="M100.357 267.626C80.0736 267.626 62.789 252.128 60.8489 231.405C58.8206 209.531 74.8706 190.048 96.7409 188.1C205.122 178.093 258.564 157.104 337.314 113.71C356.539 103.171 380.614 110.168 391.196 129.474C401.691 148.779 394.724 172.956 375.499 183.583C334.669 206.077 298.777 223.966 256.447 237.959C212.442 252.482 164.027 261.87 104.06 267.449C102.826 267.537 101.591 267.626 100.357 267.626Z" fill="url(#paint2_linear_102_57)"/>
</g>
<defs>
<linearGradient id="paint0_linear_102_57" x1="0.164935" y1="71.8767" x2="426.631" y2="75.644" gradientUnits="userSpaceOnUse">
<stop stop-color="#783547"/>
<stop offset="1" stop-color="#A67A86"/>
</linearGradient>
<linearGradient id="paint1_linear_102_57" x1="131.645" y1="328.634" x2="398.985" y2="330.306" gradientUnits="userSpaceOnUse">
<stop stop-color="#783446"/>
<stop offset="1" stop-color="#AE8590"/>
</linearGradient>
<linearGradient id="paint2_linear_102_57" x1="60.8228" y1="187.214" x2="395.803" y2="189.347" gradientUnits="userSpaceOnUse">
<stop stop-color="#773345"/>
<stop offset="1" stop-color="#95606F"/>
</linearGradient>
<clipPath id="clip0_102_57">
<rect width="427" height="394" fill="white"/>
</clipPath>
</defs>
</svg>
