<svg width="128" height="96" viewBox="0 0 128 96" fill="none" xmlns="http://www.w3.org/2000/svg">
<g clip-path="url(#clip0_139_7641)">
<path fill-rule="evenodd" clip-rule="evenodd" d="M106.029 -49.0373C106.405 -49.4673 106.863 -49.8189 107.375 -50.0719C107.887 -50.3249 108.444 -50.4743 109.014 -50.5116C109.585 -50.549 110.156 -50.4734 110.697 -50.2894C111.238 -50.1054 111.738 -49.8164 112.167 -49.4391L139.876 -25.1348C140.306 -24.7586 140.658 -24.3013 140.911 -23.789C141.164 -23.2767 141.313 -22.7195 141.35 -22.1494C141.388 -21.5793 141.312 -21.0074 141.128 -20.4665C140.944 -19.9256 140.655 -19.4263 140.278 -18.9972L59.2636 73.3674C58.8746 73.8077 58.4004 74.1646 57.8696 74.4163L15.6599 94.5918C14.8929 94.9587 14.035 95.0924 13.1927 94.9763C12.3504 94.8602 11.5607 94.4995 10.9215 93.9388C10.2822 93.3781 9.82162 92.6422 9.59671 91.8222C9.3718 91.0022 9.3925 90.1342 9.65622 89.3259L24.1565 44.8461C24.3369 44.287 24.6289 43.7704 25.0147 43.3273L106.029 -49.0373ZM99.2248 -28.0977L120.404 -9.52115L130.879 -21.4639L109.7 -40.0405L99.2248 -28.0977ZM114.676 -2.99098L93.4971 -21.5675L40.8378 38.4695L41.0041 41.0095L45.3386 40.7257C46.4881 40.6505 47.6205 41.0349 48.4866 41.7946C49.3527 42.5543 49.8815 43.6269 49.9568 44.7764L50.2406 49.1109L54.575 48.8271C55.7246 48.7519 56.857 49.1364 57.7231 49.896C58.5892 50.6557 59.118 51.7283 59.1933 52.8779L59.477 57.2123L62.017 57.046L114.676 -2.99098ZM32.9956 47.4104L32.1369 48.3894L21.0592 82.3807L53.3161 66.966L54.1749 65.9869C53.3278 65.7321 52.5787 65.2248 52.0278 64.5328C51.4768 63.8407 51.1503 62.997 51.0918 62.1143L50.8081 57.7799L46.4736 58.0636C45.324 58.1389 44.1917 57.7544 43.3256 56.9947C42.4595 56.2351 41.9306 55.1625 41.8554 54.0129L41.5716 49.6784L37.2372 49.9622C36.3544 50.0193 35.4753 49.8056 34.7174 49.3496C33.9594 48.8936 33.3587 48.217 32.9956 47.4104Z" fill="white"/>
</g>
<defs>
<clipPath id="clip0_139_7641">
<rect width="139" height="139" fill="white" transform="translate(0.628906 -43.2906) rotate(-3.74558)"/>
</clipPath>
</defs>
</svg>
