<svg width="11" height="11" viewBox="0 0 11 11" fill="none" xmlns="http://www.w3.org/2000/svg">
<path d="M6.06504 7.38418L5.33027 8.08027C5.25293 8.19629 5.12187 8.25 4.98438 8.25H4.125V9.10938C4.125 9.39512 3.89512 9.625 3.60938 9.625H2.75V10.4844C2.75 10.7701 2.52012 11 2.23438 11H0.515625C0.230957 11 0 10.7701 0 10.4844V8.76562C0 8.62813 0.054334 8.49707 0.151014 8.40039L3.61582 4.93496C3.4998 4.57188 3.4375 4.18301 3.4375 3.78125C3.4375 1.69297 5.13047 0 7.21875 0C9.30703 0 11 1.69297 11 3.78125C11 5.86953 9.30703 7.5625 7.21875 7.5625C6.81699 7.5625 6.42812 7.5002 6.06504 7.38418ZM8.07812 3.78125C8.55293 3.78125 8.9375 3.39668 8.9375 2.92188C8.9375 2.44707 8.55293 2.0625 8.07812 2.0625C7.60332 2.0625 7.21875 2.44707 7.21875 2.92188C7.21875 3.39668 7.60332 3.78125 8.07812 3.78125Z" fill="black" fill-opacity="0.5"/>
</svg>
