<svg width="19" height="21" viewBox="0 0 19 21" fill="none" xmlns="http://www.w3.org/2000/svg">
<path d="M14.9888 9.73323H4.05661C3.19409 9.73323 2.49487 10.4863 2.49487 11.4152V17.3022C2.49487 18.2312 3.19409 18.9842 4.05661 18.9842H14.9888C15.8513 18.9842 16.5505 18.2312 16.5505 17.3022V11.4152C16.5505 10.4863 15.8513 9.73323 14.9888 9.73323Z" stroke="#6E2639" stroke-width="2" stroke-linecap="round" stroke-linejoin="round"/>
<path d="M5.61841 9.73323V6.36923C5.61841 5.25399 6.02976 4.18443 6.76196 3.39584C7.49417 2.60725 8.48725 2.16422 9.52275 2.16422C10.5582 2.16422 11.5513 2.60725 12.2835 3.39584C13.0157 4.18443 13.4271 5.25399 13.4271 6.36923V9.73323" stroke="#6E2639" stroke-width="2" stroke-linecap="round" stroke-linejoin="round"/>
</svg>
