<svg width="139" height="139" viewBox="0 0 139 139" fill="none" xmlns="http://www.w3.org/2000/svg">
<g clip-path="url(#clip0_130_3126)">
<path fill-rule="evenodd" clip-rule="evenodd" d="M105.55 1.15104C105.954 0.746522 106.433 0.425581 106.961 0.2066C107.489 -0.012381 108.054 -0.1251 108.626 -0.1251C109.197 -0.1251 109.763 -0.012381 110.291 0.2066C110.818 0.425581 111.298 0.746522 111.701 1.15104L137.764 27.2135C138.168 27.617 138.489 28.0964 138.708 28.6241C138.927 29.1518 139.04 29.7176 139.04 30.2889C139.04 30.8603 138.927 31.426 138.708 31.9537C138.489 32.4815 138.168 32.9608 137.764 33.3643L50.8886 120.239C50.4718 120.653 49.9752 120.978 49.4291 121.195L5.99163 138.57C5.20225 138.886 4.33749 138.963 3.50457 138.792C2.67164 138.622 1.90718 138.21 1.30595 137.609C0.704717 137.007 0.293159 136.243 0.122298 135.41C-0.0485627 134.577 0.0287865 133.712 0.344757 132.923L17.7198 89.4855C17.9363 88.9394 18.2614 88.4429 18.6754 88.026L105.55 1.15104ZM97.3928 21.6014L117.313 41.5219L128.546 30.2889L108.626 10.3685L97.3928 21.6014ZM111.171 47.6639L91.2507 27.7435L34.782 84.2122V86.7577H39.1258C40.2778 86.7577 41.3826 87.2153 42.1972 88.0299C43.0119 88.8445 43.4695 89.9494 43.4695 91.1014V95.4452H47.8133C48.9653 95.4452 50.0701 95.9028 50.8847 96.7174C51.6994 97.532 52.157 98.6369 52.157 99.7889V104.133H54.7024L111.171 47.6639ZM26.3725 92.6217L25.4516 93.5426L12.1771 126.738L45.3721 113.463L46.2929 112.542C45.4643 112.233 44.75 111.677 44.2454 110.951C43.7409 110.224 43.4702 109.361 43.4695 108.476V104.133H39.1258C37.9737 104.133 36.8689 103.675 36.0543 102.86C35.2396 102.046 34.782 100.941 34.782 99.7889V95.4452H30.4383C29.5537 95.4445 28.6904 95.1738 27.9639 94.6692C27.2373 94.1647 26.6821 93.4503 26.3725 92.6217Z" fill="white"/>
</g>
<defs>
<clipPath id="clip0_130_3126">
<rect width="139" height="139" fill="white"/>
</clipPath>
</defs>
</svg>
