<svg width="158" height="126" viewBox="0 0 158 126" fill="none" xmlns="http://www.w3.org/2000/svg">
<path d="M31.6002 23.4035C38.1423 23.4035 43.228 18.1125 43.228 11.8125C43.228 5.5125 38.1423 0 31.6002 0C25.058 0 19.7526 5.29102 19.7526 11.591C19.7526 17.891 25.058 23.4035 31.6002 23.4035ZM126.178 23.4035C132.72 23.4035 137.806 18.1125 137.806 11.8125C137.806 5.5125 132.942 0 126.178 0C119.636 0 114.328 5.29102 114.328 11.591C114.328 17.891 119.858 23.4035 126.178 23.4035ZM148.989 63.566L144.422 43.8465C143.28 38.9246 139.825 34.7706 135.164 32.8018C130.597 30.8331 125.758 31.1407 121.31 33.6016C115.725 36.8944 111.528 42.0919 109.43 48.2147L106.653 56.5523L102.925 59.0748L102.478 35.4375C102.478 33.2842 100.688 31.5 98.528 31.5H59.2502C57.09 31.5 55.3002 33.2842 55.3002 35.4375V58.841L51.3205 56.3186L48.5432 47.9809C46.4756 41.8286 42.2775 36.6606 36.6636 33.3679C32.405 30.9069 27.3737 30.5993 22.8089 32.568C18.1479 34.5368 14.6917 38.6909 13.5511 43.6127L9.01604 63.3322C7.87424 68.2541 9.20134 73.4836 12.5636 77.298L29.166 95.9716L31.6643 118.767C32.0939 122.998 35.5008 126 39.5002 126C39.8088 126 40.0556 125.969 40.3642 125.938C44.7142 125.477 47.8322 121.602 47.3384 117.264L44.8697 94.4385C44.4994 91.2393 43.1416 88.2566 41.0135 85.8252L30.3065 73.7666L34.6565 56.4465L36.354 61.4619C37.3415 64.5381 39.2844 67.2451 42.4024 69.492L54.993 77.49C56.1343 78.1975 57.9852 78.6282 59.2516 78.7205H98.5294C99.7947 78.6282 101.645 78.1975 102.788 77.49L115.379 69.492C118.494 67.2463 120.44 64.5701 121.427 61.4619L123.124 56.4465L127.477 73.7666L116.77 85.8252C114.64 88.2554 113.284 91.2393 112.914 94.4385L110.445 117.264C109.951 121.6 113.099 125.478 117.419 125.938C117.932 125.975 118.179 126 118.278 126C122.258 126 125.462 123.017 126.116 118.986L128.615 96.1907L145.434 77.5195C148.792 73.7051 150.125 68.4879 148.989 63.566ZM11.4206 88.1262L0.558099 115.196C-1.04659 119.228 0.928412 123.81 4.97222 125.441C9.10738 127.041 13.6425 125.011 15.2472 121.041L22.0658 104.029L21.5721 99.5375L11.4206 88.1262ZM157.432 115.196L146.792 88.1262L136.638 99.54L136.144 104.031L142.963 121.044C143.978 124.13 146.94 126 149.878 126C150.865 126 151.852 125.815 152.808 125.446C157.062 123.81 159.037 119.232 157.432 115.196Z" fill="white"/>
</svg>
