<svg width="20" height="20" viewBox="0 0 20 20" fill="none" xmlns="http://www.w3.org/2000/svg">
<g clip-path="url(#clip0_139_1182)">
<path fill-rule="evenodd" clip-rule="evenodd" d="M15.1871 0.165673C15.2452 0.107469 15.3142 0.0612903 15.3901 0.0297822C15.466 -0.00172582 15.5474 -0.0179443 15.6296 -0.0179443C15.7118 -0.0179443 15.7932 -0.00172582 15.8692 0.0297822C15.9451 0.0612903 16.0141 0.107469 16.0721 0.165673L19.8221 3.91567C19.8803 3.97373 19.9265 4.0427 19.958 4.11863C19.9895 4.19456 20.0058 4.27597 20.0058 4.35817C20.0058 4.44038 19.9895 4.52179 19.958 4.59772C19.9265 4.67365 19.8803 4.74262 19.8221 4.80067L7.32214 17.3007C7.26216 17.3602 7.19072 17.407 7.11214 17.4382L0.86214 19.9382C0.74856 19.9836 0.624135 19.9948 0.50429 19.9702C0.384444 19.9456 0.274449 19.8864 0.187941 19.7999C0.101433 19.7134 0.0422163 19.6034 0.017632 19.4835C-0.00695231 19.3637 0.00417707 19.2393 0.0496404 19.1257L2.54964 12.8757C2.5808 12.7971 2.62758 12.7257 2.68714 12.6657L15.1871 0.165673ZM14.0134 3.10817L16.8796 5.97443L18.4959 4.35817L15.6296 1.49192L14.0134 3.10817ZM15.9959 6.85818L13.1296 3.99192L5.00464 12.1169V12.4832H5.62964C5.7954 12.4832 5.95437 12.549 6.07158 12.6662C6.18879 12.7834 6.25464 12.9424 6.25464 13.1082V13.7332H6.87964C7.0454 13.7332 7.20437 13.799 7.32158 13.9162C7.43879 14.0334 7.50464 14.1924 7.50464 14.3582V14.9832H7.87089L15.9959 6.85818ZM3.79464 13.3269L3.66214 13.4594L1.75214 18.2357L6.52839 16.3257L6.66089 16.1932C6.54166 16.1486 6.43888 16.0687 6.36628 15.9642C6.29369 15.8597 6.25473 15.7355 6.25464 15.6082V14.9832H5.62964C5.46388 14.9832 5.30491 14.9173 5.1877 14.8001C5.07049 14.6829 5.00464 14.5239 5.00464 14.3582V13.7332H4.37964C4.25236 13.7331 4.12815 13.6941 4.02361 13.6215C3.91907 13.5489 3.83919 13.4462 3.79464 13.3269Z" fill="black" fill-opacity="0.54"/>
</g>
<defs>
<clipPath id="clip0_139_1182">
<rect width="20" height="20" fill="white"/>
</clipPath>
</defs>
</svg>
