<svg width="42" height="34" viewBox="0 0 42 34" fill="none" xmlns="http://www.w3.org/2000/svg">
<path d="M25.3906 23.7291H16.9498C16.4839 23.7291 16.1057 24.0465 16.1057 24.4375C16.1057 24.8285 16.4839 25.1458 16.9498 25.1458H25.3906C25.8565 25.1458 26.2347 24.8285 26.2347 24.4375C26.2347 24.0465 25.8565 23.7291 25.3906 23.7291Z" fill="#934E60"/>
<path fill-rule="evenodd" clip-rule="evenodd" d="M11.8853 9.5625H30.4551C30.9211 9.5625 31.2992 9.87983 31.2992 10.2708V21.6042C31.2992 21.9952 30.9211 22.3125 30.4551 22.3125H11.8853C11.4194 22.3125 11.0413 21.9952 11.0413 21.6042V10.2708C11.0413 9.87983 11.4194 9.5625 11.8853 9.5625ZM12.7294 20.8958H29.611V10.9792H12.7294V20.8958Z" fill="#934E60"/>
</svg>
