<svg width="20" height="20" viewBox="0 0 20 20" fill="none" xmlns="http://www.w3.org/2000/svg">
<g clip-path="url(#clip0_139_1188)">
<path fill-rule="evenodd" clip-rule="evenodd" d="M11.0554 2.04188C10.7479 0.998135 9.27039 0.998135 8.96289 2.04188L8.84539 2.44063C8.74657 2.77557 8.57408 3.08415 8.34056 3.34379C8.10703 3.60342 7.81838 3.80753 7.49575 3.94116C7.17313 4.07478 6.82469 4.13455 6.47598 4.11608C6.12726 4.0976 5.78709 4.00135 5.48039 3.83438L5.11539 3.63438C4.16039 3.11563 3.11539 4.15938 3.63539 5.11563L3.83414 5.48063C4.00111 5.78734 4.09736 6.1275 4.11583 6.47622C4.13431 6.82494 4.07454 7.17337 3.94091 7.496C3.80728 7.81862 3.60318 8.10727 3.34354 8.3408C3.08391 8.57433 2.77532 8.74682 2.44039 8.84563L2.04164 8.96313C0.997891 9.27063 0.997891 10.7481 2.04164 11.0556L2.44039 11.1731C2.7755 11.2719 3.08425 11.4444 3.34402 11.678C3.60378 11.9117 3.80797 12.2004 3.94162 12.5232C4.07526 12.846 4.13498 13.1946 4.11638 13.5435C4.09778 13.8924 4.00135 14.2326 3.83414 14.5394L3.63414 14.9031C3.11539 15.8581 4.15914 16.9031 5.11539 16.3831L5.48039 16.1844C5.78718 16.0174 6.12743 15.9212 6.47621 15.9028C6.825 15.8844 7.17348 15.9443 7.49612 16.0781C7.81877 16.2118 8.1074 16.4161 8.34086 16.6758C8.57433 16.9356 8.74672 17.2443 8.84539 17.5794L8.96289 17.9769C9.27039 19.0206 10.7479 19.0206 11.0554 17.9769L11.1729 17.5781C11.2717 17.243 11.4442 16.9343 11.6778 16.6745C11.9114 16.4147 12.2002 16.2106 12.523 16.0769C12.8458 15.9433 13.1944 15.8836 13.5432 15.9021C13.8921 15.9207 14.2324 16.0172 14.5391 16.1844L14.9029 16.3844C15.8579 16.9031 16.9029 15.8594 16.3829 14.9031L16.1841 14.5394C16.017 14.2326 15.9206 13.8922 15.9021 13.5433C15.8835 13.1943 15.9434 12.8457 16.0771 12.5229C16.2109 12.2001 16.4152 11.9113 16.6751 11.6777C16.935 11.4442 17.2439 11.2718 17.5791 11.1731L17.9766 11.0556C19.0204 10.7481 19.0204 9.27063 17.9766 8.96313L17.5779 8.84563C17.243 8.74682 16.9344 8.57433 16.6747 8.3408C16.4151 8.10727 16.211 7.81862 16.0774 7.496C15.9437 7.17337 15.884 6.82494 15.9025 6.47622C15.9209 6.1275 16.0172 5.78734 16.1841 5.48063L16.3841 5.11563C16.9029 4.16063 15.8591 3.11563 14.9029 3.63563L14.5391 3.83438C14.2323 4.00182 13.892 4.09845 13.5429 4.11717C13.1939 4.13589 12.8451 4.07623 12.5222 3.94256C12.1992 3.8089 11.9103 3.60463 11.6766 3.34473C11.4429 3.08484 11.2704 2.77592 11.1716 2.44063L11.0541 2.04188H11.0554ZM7.76414 1.68813C8.42289 -0.549365 11.5954 -0.549365 12.2541 1.68813L12.3716 2.08688C12.4176 2.24307 12.498 2.38699 12.6069 2.50808C12.7157 2.62917 12.8503 2.72437 13.0007 2.7867C13.1511 2.84903 13.3136 2.8769 13.4762 2.86828C13.6388 2.85966 13.7974 2.81477 13.9404 2.73688L14.3054 2.53688C16.3554 1.42188 18.5979 3.66313 17.4804 5.71313L17.2816 6.07813C17.2038 6.22113 17.1589 6.37973 17.1502 6.54233C17.1416 6.70492 17.1695 6.86739 17.2318 7.01781C17.2942 7.16823 17.3894 7.3028 17.5104 7.41166C17.6315 7.52051 17.7755 7.60088 17.9316 7.64688L18.3304 7.76438C20.5679 8.42313 20.5679 11.5956 18.3304 12.2544L17.9316 12.3719C17.7755 12.4179 17.6315 12.4983 17.5104 12.6071C17.3894 12.716 17.2942 12.8505 17.2318 13.001C17.1695 13.1514 17.1416 13.3138 17.1502 13.4764C17.1589 13.639 17.2038 13.7976 17.2816 13.9406L17.4816 14.3056C18.5979 16.3556 16.3541 18.5981 14.3054 17.4806L13.9404 17.2819C13.7974 17.204 13.6388 17.1591 13.4762 17.1505C13.3136 17.1419 13.1511 17.1697 13.0007 17.2321C12.8503 17.2944 12.7157 17.3896 12.6069 17.5107C12.498 17.6318 12.4176 17.7757 12.3716 17.9319L12.2541 18.3306C11.5954 20.5681 8.42289 20.5681 7.76414 18.3306L7.64664 17.9319C7.60064 17.7757 7.52026 17.6318 7.41141 17.5107C7.30256 17.3896 7.16799 17.2944 7.01757 17.2321C6.86715 17.1697 6.70468 17.1419 6.54209 17.1505C6.37949 17.1591 6.22088 17.204 6.07789 17.2819L5.71289 17.4819C3.66289 18.5981 1.42164 16.3544 2.53789 14.3056L2.73664 13.9406C2.81452 13.7976 2.85942 13.639 2.86804 13.4764C2.87666 13.3138 2.84878 13.1514 2.78646 13.001C2.72413 12.8505 2.62893 12.716 2.50784 12.6071C2.38675 12.4983 2.24283 12.4179 2.08664 12.3719L1.68789 12.2544C-0.54961 11.5956 -0.54961 8.42313 1.68789 7.76438L2.08664 7.64688C2.24283 7.60088 2.38675 7.52051 2.50784 7.41166C2.62893 7.3028 2.72413 7.16823 2.78646 7.01781C2.84878 6.86739 2.87666 6.70492 2.86804 6.54233C2.85942 6.37973 2.81452 6.22113 2.73664 6.07813L2.53664 5.71313C1.42164 3.66313 3.66414 1.42188 5.71289 2.53813L6.07789 2.73688C6.22088 2.81477 6.37949 2.85966 6.54209 2.86828C6.70468 2.8769 6.86715 2.84903 7.01757 2.7867C7.16799 2.72437 7.30256 2.62917 7.41141 2.50808C7.52026 2.38699 7.60064 2.24307 7.64664 2.08688L7.76414 1.68813Z" fill="black" fill-opacity="0.54"/>
<path fill-rule="evenodd" clip-rule="evenodd" d="M9.99988 7.19238C9.25529 7.19238 8.54119 7.48817 8.01468 8.01468C7.48817 8.54119 7.19238 9.25529 7.19238 9.99988C7.19238 10.7445 7.48817 11.4586 8.01468 11.9851C8.54119 12.5116 9.25529 12.8074 9.99988 12.8074C10.7445 12.8074 11.4586 12.5116 11.9851 11.9851C12.5116 11.4586 12.8074 10.7445 12.8074 9.99988C12.8074 9.25529 12.5116 8.54119 11.9851 8.01468C11.4586 7.48817 10.7445 7.19238 9.99988 7.19238ZM5.94238 9.99988C5.94238 9.46704 6.04733 8.93942 6.25124 8.44715C6.45515 7.95487 6.75402 7.50757 7.1308 7.1308C7.50757 6.75402 7.95487 6.45515 8.44714 6.25124C8.93942 6.04733 9.46704 5.94238 9.99988 5.94238C10.5327 5.94238 11.0603 6.04733 11.5526 6.25124C12.0449 6.45515 12.4922 6.75402 12.869 7.1308C13.2457 7.50757 13.5446 7.95487 13.7485 8.44715C13.9524 8.93942 14.0574 9.46704 14.0574 9.99988C14.0574 11.076 13.6299 12.108 12.869 12.869C12.108 13.6299 11.076 14.0574 9.99988 14.0574C8.92377 14.0574 7.89173 13.6299 7.1308 12.869C6.36987 12.108 5.94238 11.076 5.94238 9.99988Z" fill="black" fill-opacity="0.54"/>
</g>
<defs>
<clipPath id="clip0_139_1188">
<rect width="20" height="20" fill="white"/>
</clipPath>
</defs>
</svg>
